<mxfile host="65bd71144e">
    <diagram id="hkdaoH9SaDL6nner_1pu" name="Page-1">
        <mxGraphModel dx="746" dy="571" grid="1" gridSize="10" guides="0" tooltips="1" connect="1" arrows="1" fold="1" page="1" pageScale="1" pageWidth="1169" pageHeight="827" background="none" math="0" shadow="0">
            <root>
                <mxCell id="0"/>
                <mxCell id="1" parent="0"/>
                <mxCell id="2" value="blog management (businessï¼‰" style="rounded=0;whiteSpace=wrap;html=1;" parent="1" vertex="1">
                    <mxGeometry x="72" y="230" width="170" height="80" as="geometry"/>
                </mxCell>
                <mxCell id="4" value="user management&lt;br&gt;&lt;br&gt;author/visitor" style="rounded=0;whiteSpace=wrap;html=1;" parent="1" vertex="1">
                    <mxGeometry x="280" y="230" width="170" height="80" as="geometry"/>
                </mxCell>
                <mxCell id="20" style="edgeStyle=none;html=1;exitX=1;exitY=0.75;exitDx=0;exitDy=0;entryX=0.5;entryY=0;entryDx=0;entryDy=0;" parent="1" source="6" target="18" edge="1">
                    <mxGeometry relative="1" as="geometry">
                        <Array as="points">
                            <mxPoint x="687" y="100"/>
                        </Array>
                    </mxGeometry>
                </mxCell>
                <mxCell id="21" value="1. user A login and get token&lt;br&gt;&lt;br&gt;user/pass" style="edgeLabel;html=1;align=center;verticalAlign=middle;resizable=0;points=[];" parent="20" vertex="1" connectable="0">
                    <mxGeometry x="0.12" y="-1" relative="1" as="geometry">
                        <mxPoint x="-74" y="27" as="offset"/>
                    </mxGeometry>
                </mxCell>
                <mxCell id="6" value="browser" style="rounded=0;whiteSpace=wrap;html=1;" parent="1" vertex="1">
                    <mxGeometry x="72" y="70" width="480" height="40" as="geometry"/>
                </mxCell>
                <mxCell id="9" value="" style="endArrow=classic;html=1;entryX=0.5;entryY=0;entryDx=0;entryDy=0;exitX=0.177;exitY=1.06;exitDx=0;exitDy=0;exitPerimeter=0;" parent="1" source="6" target="2" edge="1">
                    <mxGeometry width="50" height="50" relative="1" as="geometry">
                        <mxPoint x="212" y="190" as="sourcePoint"/>
                        <mxPoint x="262" y="140" as="targetPoint"/>
                    </mxGeometry>
                </mxCell>
                <mxCell id="11" value="4. user A carrying token when loginning" style="edgeLabel;html=1;align=center;verticalAlign=middle;resizable=0;points=[];" parent="9" vertex="1" connectable="0">
                    <mxGeometry x="-0.379" relative="1" as="geometry">
                        <mxPoint y="21" as="offset"/>
                    </mxGeometry>
                </mxCell>
                <mxCell id="12" value="auth middleware" style="rounded=0;whiteSpace=wrap;html=1;" parent="1" vertex="1">
                    <mxGeometry x="280" y="170" width="120" height="40" as="geometry"/>
                </mxCell>
                <mxCell id="13" value="" style="endArrow=classic;html=1;entryX=0.25;entryY=0;entryDx=0;entryDy=0;exitX=1;exitY=0.5;exitDx=0;exitDy=0;" parent="1" source="12" target="18" edge="1">
                    <mxGeometry width="50" height="50" relative="1" as="geometry">
                        <mxPoint x="290" y="280" as="sourcePoint"/>
                        <mxPoint x="340" y="230" as="targetPoint"/>
                        <Array as="points">
                            <mxPoint x="645" y="190"/>
                        </Array>
                    </mxGeometry>
                </mxCell>
                <mxCell id="25" value="5. confirm the validity of a token or not" style="edgeLabel;html=1;align=center;verticalAlign=middle;resizable=0;points=[];" parent="13" vertex="1" connectable="0">
                    <mxGeometry x="-0.4891" relative="1" as="geometry">
                        <mxPoint x="39" as="offset"/>
                    </mxGeometry>
                </mxCell>
                <mxCell id="14" value="" style="endArrow=classic;html=1;entryX=0;entryY=0.25;entryDx=0;entryDy=0;" parent="1" target="12" edge="1">
                    <mxGeometry width="50" height="50" relative="1" as="geometry">
                        <mxPoint x="160" y="180" as="sourcePoint"/>
                        <mxPoint x="340" y="230" as="targetPoint"/>
                    </mxGeometry>
                </mxCell>
                <mxCell id="15" value="" style="endArrow=classic;html=1;exitX=0;exitY=0.75;exitDx=0;exitDy=0;" parent="1" source="12" edge="1">
                    <mxGeometry width="50" height="50" relative="1" as="geometry">
                        <mxPoint x="258" y="200" as="sourcePoint"/>
                        <mxPoint x="158" y="200" as="targetPoint"/>
                    </mxGeometry>
                </mxCell>
                <mxCell id="17" value="6. inject user infomation" style="edgeLabel;html=1;align=center;verticalAlign=middle;resizable=0;points=[];" parent="15" vertex="1" connectable="0">
                    <mxGeometry x="0.284" y="1" relative="1" as="geometry">
                        <mxPoint x="15" y="9" as="offset"/>
                    </mxGeometry>
                </mxCell>
                <mxCell id="23" style="edgeStyle=none;html=1;exitX=0.75;exitY=0;exitDx=0;exitDy=0;entryX=1;entryY=0.25;entryDx=0;entryDy=0;" parent="1" source="18" target="6" edge="1">
                    <mxGeometry relative="1" as="geometry">
                        <Array as="points">
                            <mxPoint x="732" y="80"/>
                        </Array>
                    </mxGeometry>
                </mxCell>
                <mxCell id="24" value="3. issue access &lt;br&gt;&lt;br&gt;token to user A" style="edgeLabel;html=1;align=center;verticalAlign=middle;resizable=0;points=[];" parent="23" vertex="1" connectable="0">
                    <mxGeometry x="-0.4872" relative="1" as="geometry">
                        <mxPoint x="11" y="-5" as="offset"/>
                    </mxGeometry>
                </mxCell>
                <mxCell id="18" value="token management&lt;br&gt;&lt;br&gt;user identification token" style="rounded=0;whiteSpace=wrap;html=1;" parent="1" vertex="1">
                    <mxGeometry x="602" y="230" width="170" height="80" as="geometry"/>
                </mxCell>
                <mxCell id="26" value="" style="endArrow=classic;html=1;entryX=1;entryY=0.75;entryDx=0;entryDy=0;exitX=0;exitY=0.75;exitDx=0;exitDy=0;" parent="1" source="18" target="4" edge="1">
                    <mxGeometry width="50" height="50" relative="1" as="geometry">
                        <mxPoint x="382" y="360" as="sourcePoint"/>
                        <mxPoint x="432" y="310" as="targetPoint"/>
                    </mxGeometry>
                </mxCell>
                <mxCell id="27" value="2. confirm the id of user A" style="edgeLabel;html=1;align=center;verticalAlign=middle;resizable=0;points=[];" parent="26" vertex="1" connectable="0">
                    <mxGeometry x="0.3033" relative="1" as="geometry">
                        <mxPoint x="29" as="offset"/>
                    </mxGeometry>
                </mxCell>
                <mxCell id="28" value="token: user A" style="text;html=1;align=center;verticalAlign=middle;resizable=0;points=[];autosize=1;strokeColor=none;fillColor=none;" parent="1" vertex="1">
                    <mxGeometry x="642" y="320" width="90" height="30" as="geometry"/>
                </mxCell>
                <mxCell id="29" value="only on first login, user need to show his username or password, enforcing security" style="text;html=1;align=center;verticalAlign=middle;resizable=0;points=[];autosize=1;strokeColor=none;fillColor=none;" parent="1" vertex="1">
                    <mxGeometry x="53" y="29" width="460" height="30" as="geometry"/>
                </mxCell>
            </root>
        </mxGraphModel>
    </diagram>
</mxfile>